<svg width="155" height="155" viewBox="0 0 155 155" fill="none" xmlns="http://www.w3.org/2000/svg">
<path d="M77.5 155C120.302 155 155 120.302 155 77.5C155 34.6979 120.302 0 77.5 0C34.6979 0 0 34.6979 0 77.5C0 120.302 34.6979 155 77.5 155Z" fill="#4568FC"/>
<path d="M104.89 104.72L98.45 97.98C98.13 97.65 97.68 97.47 97.23 97.5C96.78 97.53 96.37 97.75 96.11 98.12C94.11 100.88 91.96 102.85 89.83 104.27C89.83 104.28 89.82 104.29 89.8 104.3C89.62 104.43 89.44 104.54 89.25 104.67L87.6 105.56C85.31 106.71 83.12 107.26 81.27 107.49C81.14 107.51 81.02 107.52 80.89 107.53C76.4 108.02 73.07 106.83 73.04 106.82C65.8 105.65 60.52 102.03 57.34 96.04C54.7 91.07 54.22 85.66 54.16 82.88C54.13 81.35 53.53 79.91 52.46 78.83C51.36 77.72 49.93 77.12 48.45 77.09C47.7 77.07 46.93 77.2 46.18 77.49C44 78.32 42.56 80.28 42.44 82.6C41.95 91.98 45.01 98.65 45.04 98.72C45.15 98.93 45.26 99.13 45.38 99.33L45.49 99.52C45.54 99.6 45.58 99.69 45.63 99.77L45.89 100.24C51.78 110.48 58.66 115.21 63.49 117.39C68.98 119.86 73.07 119.65 73.11 119.65C90.14 122.16 101.76 110.43 104.91 106.77C105.43 106.17 105.4 105.28 104.85 104.7L104.89 104.72Z" fill="white"/>
<path d="M108.08 66.94C108.05 66.88 105.24 61.14 98.42 55.05L98.08 54.75C98.06 54.74 98.05 54.72 98.03 54.71L79.54 35.47C79.26 35.18 78.87 35.01 78.46 35C78.46 35 78.46 35 78.45 35C78.04 35 77.65 35.15 77.35 35.44L50 62.21C49.4 62.79 49.38 63.76 49.96 64.37L67.82 83.26C70 85.57 73.56 85.71 75.92 83.59C78.27 81.47 78.48 77.81 76.39 75.44L66.77 64.55C66.16 63.86 66.22 62.78 66.9 62.16L77.09 52.91C77.43 52.6 77.85 52.46 78.28 52.47C78.71 52.47 79.14 52.65 79.46 52.99L94.47 68.36C94.47 68.36 96.32 69.78 97.96 72.91C99.47 75.8 101.11 80.78 100.36 88.14C100.36 88.14 100.44 88.14 100.55 88.14C100.5 88.24 100.46 88.34 100.41 88.43C100.4 88.45 100.38 88.46 100.36 88.47C100.4 88.8 100.54 89.11 100.77 89.36L108.05 97.07C108.42 97.47 108.96 97.63 109.49 97.52C110.02 97.41 110.44 97.04 110.62 96.53C112.21 92.02 115.16 80.12 108.09 66.95L108.08 66.94Z" fill="white"/>
</svg>
